<?xml version="1.0" encoding="UTF-8"?>
<svg width="147px" height="136px" viewBox="0 0 147 136" version="1.1" xmlns="http://www.w3.org/2000/svg" xmlns:xlink="http://www.w3.org/1999/xlink">
    <!-- Generator: Sketch 47.1 (45422) - http://www.bohemiancoding.com/sketch -->
    <title>new_logo_tall_grey copy</title>
    <desc>Created with Sketch.</desc>
    <defs></defs>
    <g id="Page-1" stroke="none" stroke-width="1" fill="none" fill-rule="evenodd">
        <g id="new_logo_tall_grey-copy">
            <path d="M8,97 L11.4643847,97 L11.4643847,117.954171 C11.4643847,120.273488 12.320872,120.690541 13.3919113,120.690541 C13.714313,120.690541 14,120.652106 14,120.652106 L14,123.922556 C14,123.922556 13.4630462,124 12.8561048,124 C10.8924371,124 8,123.429206 8,118.599541 L8,97 Z" id="Fill-1" fill="#FFFFFF"></path>
            <path d="M30.2241133,111.774466 C30.1099533,108.490439 28.050483,106.904949 25.5710874,106.904949 C22.7486379,106.904949 20.4608475,108.641732 19.9267621,111.774466 L30.2241133,111.774466 Z M25.6473853,104 C31.1012526,104 34,107.999438 34,112.944319 C34,113.433633 33.8858399,114.528121 33.8858399,114.528121 L19.812602,114.528121 C20.00306,118.718785 23.0165411,120.831271 26.4482266,120.831271 C29.7663258,120.831271 32.1688498,118.604049 32.1688498,118.604049 L33.6948083,121.28234 C33.6948083,121.28234 30.833923,124 26.2204802,124 C20.1556558,124 16.0000005,119.65973 16.0000005,114 C15.9982795,107.924072 20.1556558,104 25.6473853,104 L25.6473853,104 Z" id="Fill-3" fill="#FFFFFF"></path>
            <path d="M42.2829774,121.056243 C45.3782712,121.056243 47.378342,117.811586 47.378342,114.980877 L47.378342,114.376828 L46.4349658,114.376828 C43.6801941,114.376828 38.6987145,114.565804 38.6987145,117.998875 C38.6987145,119.546682 39.9061227,121.056243 42.2829774,121.056243 M46.5103226,111.623172 L47.3403803,111.623172 L47.3403803,111.281777 C47.3403803,108.150731 45.5658132,107.095051 43.1509968,107.095051 C40.2075498,107.095051 37.829562,108.94207 37.829562,108.94207 L36.3207267,106.264342 C36.3207267,106.264342 39.076065,104 43.452424,104 C48.2837565,104 51,106.640607 51,111.471879 L51,123.546682 L47.6044123,123.546682 L47.6044123,121.737345 C47.6044123,120.868954 47.6797691,120.226097 47.6797691,120.226097 L47.6044123,120.226097 C47.6044123,120.226097 46.0576154,124 41.4908814,124 C38.2069124,124 35,122 35,118.187852 C35,111.886952 43.3017104,111.623172 46.5103226,111.623172" id="Fill-5" fill="#FFFFFF"></path>
            <path d="M62.8697814,120.808528 C65.8625151,120.808528 68.3320798,118.326343 68.3320798,114.002167 C68.3320798,109.866148 66.1246733,107.196953 62.9804959,107.196953 C60.1369112,107.196953 57.5181975,109.189241 57.5181975,114.040602 C57.5181975,117.425139 59.3888712,120.808528 62.8697814,120.808528 L62.8697814,120.808528 Z M54,104.451463 L57.3311875,104.451463 L57.3311875,106.068583 C57.3311875,106.819491 57.254892,107.459111 57.254892,107.459111 L57.3311875,107.459111 C57.3311875,107.459111 58.939703,104 63.6929696,104 C68.7823953,104 72,108.060297 72,113.965454 C72,120.018612 68.3693671,123.930907 63.4308114,123.930907 C59.2764357,123.930907 57.6306329,120.808528 57.6306329,120.808528 L57.5554847,120.808528 C57.5554847,120.808528 57.6306329,121.485436 57.6306329,122.463509 L57.6306329,131 L54,131 L54,104.451463 Z" id="Fill-7" fill="#FFFFFF"></path>
            <path d="M75.38897,108.011452 L73,108.011452 L73,105.050206 L75.38897,105.050206 L75.38897,104.138083 C75.38897,97.7956699 80.1680169,97 82.5962864,97 C83.4293262,97 84,97.1135852 84,97.1135852 L84,100.266434 C84,100.266434 83.6191818,100.18899 83.0501686,100.18899 C81.6470085,100.18899 79.030544,100.645052 79.030544,104.215527 L79.030544,105.050206 L83.5826498,105.050206 L83.5826498,108.013173 L79.030544,108.013173 L79.030544,124 L75.38897,124 L75.38897,108.011452 Z" id="Fill-9" fill="#FFFFFF"></path>
            <path d="M100,104 C97.6922633,104.001114 95.3816397,104.002784 95.1172055,104.006124 C92.0098152,104.045654 89.6599307,106.158559 88.7442263,108.902831 L88.6628176,108.902831 C88.6628176,108.902831 88.7442263,108.272021 88.7442263,107.493671 L88.7442263,104.228828 L85,104.228828 L85,123 L88.8620092,123 L88.8620092,115.322276 C88.8620092,114.17201 88.9815242,113.021186 89.341224,111.945525 C90.2575058,109.162281 92.5277136,107.53153 94.9959584,107.53153 C95.1685912,107.53153 95.8874134,107.524292 96.8215935,107.514271 C97.6125866,106.131278 98.6986143,104.942595 100,104" id="Fill-11" fill="#FFFFFF"></path>
            <path d="M107.5,120.8292 C111.192554,120.8292 114.19157,117.962094 114.19157,113.961195 C114.19157,109.999663 111.192554,107.170238 107.5,107.170238 C103.847028,107.170238 100.807856,109.999663 100.807856,113.961195 C100.809577,117.962094 103.847028,120.8292 107.5,120.8292 M107.5,104 C113.307009,104 118,108.189303 118,113.961195 C118,119.772454 113.307009,124 107.5,124 C101.694138,124 97,119.772454 97,113.961195 C97,108.187616 101.694138,104 107.5,104" id="Fill-13" fill="#FFFFFF"></path>
            <path d="M133.392198,113.768502 C133.392198,108.691729 130.962138,107.230725 127.962425,107.230725 C124.620231,107.230725 122.721962,109.691932 122.721962,113.653444 C122.721962,117.691281 124.847978,120.461207 128.303184,120.461207 C130.962138,120.461207 133.392198,118.846983 133.392198,113.768502 M127.239602,128.768135 C130.582943,128.768135 133.317048,127.26783 133.317048,123.306888 L133.317048,121.884617 C133.317048,121.268888 133.355483,120.653729 133.355483,120.653729 L133.278038,120.653729 C132.137585,122.575532 130.354623,123.691363 127.581509,123.691363 C122.226886,123.691363 119,119.344237 119,113.730339 C119,108.153464 122.076011,104 127.391624,104 C132.025146,104 133.429487,106.883844 133.429487,106.883844 L133.505784,106.883844 C133.505784,106.883844 133.46907,106.615566 133.46907,106.268115 L133.46907,104.461369 L137,104.461369 L137,123.115505 C137,129.537654 132.177168,132 127.317048,132 C124.998853,132 122.606655,131.3444 120.746247,130.384068 L121.962425,127.461492 C121.962425,127.461492 124.354623,128.768135 127.239602,128.768135" id="Fill-15" fill="#FFFFFF"></path>
            <path d="M113,46.9997188 C113,70.1958514 94.4196752,89 71.5,89 C48.5803248,89 30,70.1958514 30,46.9997188 C30,23.8041486 48.5803248,5 71.5,5 C94.4196752,5 113,23.8041486 113,46.9997188" id="Fill-18" fill="#FFFFFF"></path>
            <path d="M104.409697,21.4857185 C99.2933507,24.6324705 93.2975362,28.2522196 89.9885493,32.1565542 C89.3427422,32.9236981 88.6783548,33.8848775 88.0111523,34.6570832 C88.0111523,36.4365869 86.6846297,37.9230687 84.9842484,38.1480375 C84.9009185,39.5259719 84.8023865,40.919654 84.7072327,42.2728417 C84.2646831,48.589405 85.005644,57.311448 85.651451,63.8107985 C85.651451,65.7505926 84.0873255,67.3281867 82.1701738,67.3281867 C80.2530221,67.3281867 78.6917118,65.7505926 78.6917118,63.8107985 C79.6837885,60.0830644 80.7214715,55.5780629 81.5750404,51.2299771 C79.887046,49.4195402 78.9788623,48.8312466 75.3371186,49.7485571 L82.9786994,37.7633408 C82.8565197,37.6980998 82.7225162,37.6666042 82.607656,37.5889899 C81.0846324,39.2205766 79.5210699,40.8662239 78.0104332,42.4668774 C71.3564248,49.4847811 59.648568,64.9609518 59.648568,64.9609518 C59.648568,64.9609518 57.5664455,67.5171606 55.7230521,67.5171606 C53.8059004,67.5171606 52.2490944,65.9367543 52.2490944,63.9997724 C52.2490944,62.7410715 53.2056996,61.2984587 55.1155318,59.6741835 C61.7740445,54.663002 67.1893646,50.3272895 71.4189222,46.6378001 C72.0377033,44.2047618 72.3845361,42.7165928 67.433161,40.7436158 L81.3954306,36.0541398 C81.3357483,35.9140967 81.2400315,35.7926135 81.1994926,35.6475086 C77.3049439,36.0901348 73.3383261,36.8702144 69.5062748,37.6255474 C65.7378472,38.368507 59.6012726,39.9635363 55.7613388,40.4140365 C53.8436241,40.4140365 52.285129,38.8381295 52.285129,36.8966482 C52.285129,34.9551669 53.8436241,33.3770103 55.7613388,33.3770103 C58.8907159,33.679031 63.6652964,34.0468551 70.0845171,34.4832947 C75.174963,34.6525838 78.835287,34.5867804 81.0677412,34.2841973 C81.2546705,32.5125675 82.7371552,31.1329459 84.5321272,31.1329459 C89.0539026,27.2640438 94.3228323,20.3743723 98.2049941,14.8772581 C90.9873825,8.72323473 81.6775137,5 71.5,5 C48.5814509,5 30,23.8051475 30,47.0011248 C30,70.1948525 48.5814509,89 71.5,89 C94.4185491,89 113,70.1948525 113,47.0011248 C113,37.3904549 109.774343,28.5638014 104.409697,21.4857185" id="Fill-20" fill="#2ECC71"></path>
        </g>
    </g>
</svg>